<svg width="70" height="72" viewBox="0 0 70 72" fill="none" xmlns="http://www.w3.org/2000/svg">
<path d="M51.4531 43.2011C51.4531 53.2468 43.2012 61.3905 33.022 61.3905C22.8427 61.3905 14.5908 53.2468 14.5908 43.2011C14.5908 33.1554 22.8427 25.0117 33.022 25.0117C43.2012 25.0117 51.4531 33.1554 51.4531 43.2011Z" fill="#E2D6CD"/>
<path fill-rule="evenodd" clip-rule="evenodd" d="M3 17.4316V68.9999H67V17.4316H3ZM2 14.4316C0.895431 14.4316 0 15.3271 0 16.4316V69.9999C0 71.1044 0.89543 71.9999 2 71.9999H68C69.1046 71.9999 70 71.1044 70 69.9999V16.4316C70 15.3271 69.1046 14.4316 68 14.4316H2Z" fill="#49341C"/>
<path fill-rule="evenodd" clip-rule="evenodd" d="M39.9394 23.8663C40.4793 23.2379 41.4263 23.1662 42.0547 23.706L68.5561 46.4753C69.1845 47.0151 69.2562 47.9622 68.7164 48.5905C68.1765 49.2189 67.2295 49.2906 66.6011 48.7507L40.0997 25.9815C39.4713 25.4417 39.3996 24.4946 39.9394 23.8663Z" fill="#49341C"/>
<path fill-rule="evenodd" clip-rule="evenodd" d="M34.5064 19.2106C35.0563 18.5898 36.0045 18.531 36.6243 19.0793L38.946 21.1329C39.5659 21.6812 39.6226 22.6289 39.0727 23.2497C38.5228 23.8706 37.5746 23.9294 36.9547 23.3811L34.633 21.3275C34.0132 20.7792 33.9565 19.8315 34.5064 19.2106Z" fill="#49341C"/>
<path fill-rule="evenodd" clip-rule="evenodd" d="M29.8994 63.5166C29.3596 64.1449 28.4125 64.2166 27.7842 63.6768L1.28274 40.9076C0.654381 40.3677 0.582644 39.4207 1.12251 38.7923C1.66238 38.1639 2.60941 38.0922 3.23777 38.6321L29.7392 61.4013C30.3676 61.9412 30.4393 62.8882 29.8994 63.5166Z" fill="#49341C"/>
<path fill-rule="evenodd" clip-rule="evenodd" d="M35.3335 68.1722C34.7836 68.793 33.8353 68.8518 33.2155 68.3036L30.8938 66.2499C30.274 65.7016 30.2173 64.7539 30.7672 64.1331C31.317 63.5122 32.2653 63.4534 32.8851 64.0017L35.2068 66.0554C35.8267 66.6036 35.8834 67.5514 35.3335 68.1722Z" fill="#49341C"/>
<path fill-rule="evenodd" clip-rule="evenodd" d="M38.9459 12.8368C38.9138 12.1368 39.1009 11.0925 39.6696 9.94686C40.2384 8.80119 40.9598 8.01523 41.54 7.61124C41.5721 8.31126 41.385 9.35555 40.8163 10.5012C40.2475 11.6469 39.5261 12.4328 38.9459 12.8368ZM39.0563 13.425C39.0573 13.4238 39.0521 13.4114 39.0375 13.3917C39.048 13.4164 39.0552 13.4262 39.0563 13.425ZM38.4455 13.1055C38.4208 13.1062 38.4077 13.1097 38.4074 13.1113C38.407 13.1128 38.4194 13.1125 38.4455 13.1055ZM41.4296 7.02306C41.4286 7.0243 41.4338 7.03665 41.4484 7.0564C41.4379 7.0317 41.4307 7.02182 41.4296 7.02306ZM42.0404 7.34261C42.0651 7.34185 42.0782 7.33835 42.0785 7.33679C42.0789 7.33524 42.0665 7.33562 42.0404 7.34261ZM37.4359 15.8787C35.6276 15.0045 35.4185 11.764 36.9688 8.64103C38.5191 5.51803 41.2417 3.69508 43.05 4.56934C44.8583 5.44361 45.0675 8.68404 43.5171 11.807C41.9668 14.93 39.2442 16.753 37.4359 15.8787Z" fill="#49341C"/>
<path fill-rule="evenodd" clip-rule="evenodd" d="M27.7572 12.8368C27.7893 12.1368 27.6022 11.0925 27.0335 9.94686C26.4648 8.80119 25.7433 8.01523 25.1631 7.61124C25.131 8.31126 25.3181 9.35555 25.8869 10.5012C26.4556 11.6469 27.177 12.4328 27.7572 12.8368ZM27.6469 13.425C27.6458 13.4238 27.6511 13.4114 27.6656 13.3917C27.6552 13.4164 27.6479 13.4262 27.6469 13.425ZM28.2576 13.1055C28.2823 13.1062 28.2954 13.1097 28.2958 13.1113C28.2961 13.1128 28.2838 13.1125 28.2576 13.1055ZM25.2735 7.02306C25.2745 7.0243 25.2693 7.03665 25.2547 7.0564C25.2652 7.0317 25.2725 7.02182 25.2735 7.02306ZM24.6628 7.34261C24.638 7.34185 24.6249 7.33835 24.6246 7.33679C24.6242 7.33524 24.6366 7.33562 24.6628 7.34261ZM29.2672 15.8787C31.0755 15.0045 31.2847 11.764 29.7344 8.64103C28.1841 5.51803 25.4614 3.69508 23.6531 4.56934C21.8448 5.44361 21.6357 8.68404 23.186 11.807C24.7363 14.93 27.459 16.753 29.2672 15.8787Z" fill="#49341C"/>
<path fill-rule="evenodd" clip-rule="evenodd" d="M34.3614 12.2158C34.912 11.2975 35.3498 9.83523 35.3498 8.05955C35.3498 6.28387 34.912 4.82158 34.3614 3.90334C33.9335 3.18971 33.6092 3.03654 33.5172 3.00588C33.4252 3.03654 33.1008 3.18971 32.6729 3.90334C32.1223 4.82158 31.6846 6.28387 31.6846 8.05955C31.6846 9.83523 32.1223 11.2975 32.6729 12.2158C33.1008 12.9294 33.4252 13.0826 33.5172 13.1132C33.6092 13.0826 33.9335 12.9294 34.3614 12.2158ZM33.5172 16.1191C36.1862 16.1191 38.3498 12.5107 38.3498 8.05955C38.3498 3.60838 36.1862 0 33.5172 0C30.8482 0 28.6846 3.60838 28.6846 8.05955C28.6846 12.5107 30.8482 16.1191 33.5172 16.1191Z" fill="#49341C"/>
<path d="M39.3237 43.9388C34.8066 53.2601 30.768 53.1031 32.4021 50.7918C34.0361 48.4805 29.0777 46.5858 25.4804 43.9388C21.8831 41.2918 23.4671 33.5353 32.5779 38.563C37.0423 29.5596 43.8409 34.6176 39.3237 43.9388Z" fill="#7D0C31"/>
<path fill-rule="evenodd" clip-rule="evenodd" d="M33.4413 41.3237L31.6115 40.314C29.5156 39.1574 28.0815 38.8686 27.2089 38.9076C26.4084 38.9435 26.0867 39.2418 25.932 39.4758C25.4971 40.1336 25.6306 41.5663 26.6657 42.3279C27.4918 42.9358 28.411 43.5112 29.3631 44.1014C29.4154 44.1339 29.4679 44.1664 29.5205 44.199C30.3941 44.7402 31.3142 45.3103 32.0889 45.8807C32.8694 46.4555 33.7639 47.2122 34.279 48.1742C34.2978 48.2093 34.3162 48.245 34.3343 48.2811C35.2411 47.1716 36.3447 45.5001 37.5239 43.0666C38.5423 40.9651 38.8595 39.2311 38.8051 37.9877C38.7491 36.7074 38.3244 36.1377 38.0984 35.9636C37.9799 35.8723 37.7228 35.7172 37.1022 36.0529C36.4025 36.4314 35.3825 37.4089 34.3697 39.4515L33.4413 41.3237ZM34.5364 50.9802C34.3515 51.1466 34.1743 51.2927 34.0057 51.4198C33.881 51.5139 33.7609 51.5975 33.646 51.6713C32.2128 52.5909 31.5674 51.9724 32.4021 50.7918C32.5603 50.5679 32.6568 50.348 32.6986 50.1309C32.7147 50.0472 32.7227 49.9639 32.723 49.881C32.7278 48.5396 30.7162 47.2929 28.4417 45.8834C27.4564 45.2727 26.4218 44.6316 25.4804 43.9388C22.0933 41.4465 23.2997 34.4244 31.0572 37.8089C31.5387 38.019 32.0454 38.2691 32.5779 38.563C32.8082 38.0984 33.0448 37.6712 33.2858 37.2801C37.7138 30.093 43.6078 35.0986 39.3237 43.9388C37.5491 47.6008 35.8483 49.7999 34.5364 50.9802Z" fill="#49341C"/>
</svg>
