<svg width="70" height="59" viewBox="0 0 70 59" fill="none" xmlns="http://www.w3.org/2000/svg">
<path d="M52.9784 29.5156C52.9784 39.5473 44.8461 47.6796 34.8144 47.6796C24.7827 47.6796 16.6504 39.5473 16.6504 29.5156C16.6504 19.4839 24.7827 11.3516 34.8144 11.3516C44.8461 11.3516 52.9784 19.4839 52.9784 29.5156Z" fill="#E2D6CD"/>
<path fill-rule="evenodd" clip-rule="evenodd" d="M3 3V55.3333H67V3H3ZM2 0C0.895431 0 0 0.895428 0 2V56.3333C0 57.4379 0.89543 58.3333 2 58.3333H68C69.1046 58.3333 70 57.4379 70 56.3333V2C70 0.89543 69.1046 0 68 0H2Z" fill="#49341C"/>
<path fill-rule="evenodd" clip-rule="evenodd" d="M37.1396 15.9785C37.1396 16.8069 36.4681 17.4785 35.6396 17.4785H17.8184C16.99 17.4785 16.3184 16.8069 16.3184 15.9785C16.3184 15.1501 16.99 14.4785 17.8184 14.4785H35.6396C36.4681 14.4785 37.1396 15.1501 37.1396 15.9785Z" fill="#49341C"/>
<path fill-rule="evenodd" clip-rule="evenodd" d="M13.1768 15.9785C13.1768 16.8069 12.5052 17.4785 11.6768 17.4785H10.4477C9.61928 17.4785 8.94771 16.8069 8.94771 15.9785C8.94771 15.1501 9.61928 14.4785 10.4477 14.4785H11.6768C12.5052 14.4785 13.1768 15.1501 13.1768 15.9785Z" fill="#49341C"/>
<path fill-rule="evenodd" clip-rule="evenodd" d="M43.9004 25.8105C43.9004 26.639 43.2288 27.3105 42.4004 27.3105H17.8193C16.9909 27.3105 16.3193 26.639 16.3193 25.8105C16.3193 24.9821 16.9909 24.3105 17.8193 24.3105H42.4004C43.2288 24.3105 43.9004 24.9821 43.9004 25.8105Z" fill="#49341C"/>
<path fill-rule="evenodd" clip-rule="evenodd" d="M13.1748 25.8105C13.1748 26.639 12.5032 27.3105 11.6748 27.3105H10.4458C9.61733 27.3105 8.94575 26.639 8.94575 25.8105C8.94575 24.9821 9.61733 24.3105 10.4458 24.3105H11.6748C12.5032 24.3105 13.1748 24.9821 13.1748 25.8105Z" fill="#49341C"/>
<path fill-rule="evenodd" clip-rule="evenodd" d="M60.4922 35.0293C60.4922 35.8577 59.8206 36.5293 58.9922 36.5293H17.8189C16.9905 36.5293 16.3189 35.8577 16.3189 35.0293C16.3189 34.2009 16.9905 33.5293 17.8189 33.5293H58.9922C59.8206 33.5293 60.4922 34.2009 60.4922 35.0293Z" fill="#49341C"/>
<path fill-rule="evenodd" clip-rule="evenodd" d="M13.1748 35.0273C13.1748 35.8558 12.5032 36.5273 11.6748 36.5273H10.4458C9.61733 36.5273 8.94575 35.8558 8.94575 35.0273C8.94575 34.1989 9.61733 33.5273 10.4458 33.5273H11.6748C12.5032 33.5273 13.1748 34.1989 13.1748 35.0273Z" fill="#49341C"/>
<path fill-rule="evenodd" clip-rule="evenodd" d="M60.4922 44.8594C60.4922 45.6878 59.8206 46.3594 58.9922 46.3594H17.8189C16.9905 46.3594 16.3189 45.6878 16.3189 44.8594C16.3189 44.0309 16.9905 43.3594 17.8189 43.3594H58.9922C59.8206 43.3594 60.4922 44.0309 60.4922 44.8594Z" fill="#49341C"/>
<path fill-rule="evenodd" clip-rule="evenodd" d="M13.1748 44.8594C13.1748 45.6878 12.5032 46.3594 11.6748 46.3594H10.4458C9.61733 46.3594 8.94575 45.6878 8.94575 44.8594C8.94575 44.0309 9.61733 43.3594 10.4458 43.3594H11.6748C12.5032 43.3594 13.1748 44.0309 13.1748 44.8594Z" fill="#49341C"/>
<path d="M59.3777 17.461C54.826 26.7793 50.7566 26.6224 52.4031 24.3118C54.0497 22.0012 49.0534 20.1072 45.4286 17.461C41.8038 14.8149 43.3999 7.06076 52.5803 12.0868C57.0789 3.08635 63.9293 8.14275 59.3777 17.461Z" fill="#7D0C31"/>
<path fill-rule="evenodd" clip-rule="evenodd" d="M53.441 14.8382L51.6198 13.8411C49.5064 12.6841 48.0561 12.3927 47.1689 12.4321C46.3516 12.4684 46.0229 12.7717 45.8669 13.0059C45.4338 13.6558 45.5607 15.0812 46.6078 15.8456C47.4408 16.4537 48.3675 17.0292 49.3269 17.6193C49.3795 17.6517 49.4324 17.6841 49.4854 17.7167C50.3657 18.2578 51.2923 18.8274 52.0724 19.3973C52.8578 19.971 53.7586 20.7268 54.2778 21.6888C54.3011 21.732 54.3239 21.776 54.346 21.8208C55.2641 20.7112 56.3837 19.0335 57.5806 16.5832C58.6064 14.4831 58.925 12.7521 58.8704 11.5125C58.8142 10.2377 58.3885 9.66936 58.1584 9.49345C58.0313 9.39637 57.7592 9.24153 57.1261 9.58131C56.4169 9.96195 55.3889 10.941 54.3693 12.981L53.441 14.8382ZM54.5329 24.5187C54.3493 24.6816 54.1732 24.8248 54.0057 24.9495C53.881 25.0423 53.7611 25.1248 53.6461 25.1976C52.2093 26.1073 51.5641 25.4892 52.4031 24.3118C52.5627 24.0879 52.6599 23.8679 52.702 23.6508C52.7178 23.5692 52.7258 23.488 52.7265 23.4071C52.7372 22.0639 50.7077 20.8161 48.4126 19.4049C47.4197 18.7945 46.3772 18.1535 45.4286 17.461C41.9859 14.9478 43.2527 7.82704 51.2537 11.4238C51.6769 11.614 52.119 11.8343 52.5803 12.0868C52.7779 11.6915 52.98 11.3233 53.1855 10.9814C57.6586 3.53874 63.7294 8.55203 59.3777 17.461C57.5801 21.1411 55.8577 23.3433 54.5329 24.5187Z" fill="#49341C"/>
</svg>
