<svg width="70" height="59" viewBox="0 0 70 59" fill="none" xmlns="http://www.w3.org/2000/svg">
<path d="M52.9784 29.5156C52.9784 39.5473 44.8461 47.6796 34.8144 47.6796C24.7827 47.6796 16.6504 39.5473 16.6504 29.5156C16.6504 19.4839 24.7827 11.3516 34.8144 11.3516C44.8461 11.3516 52.9784 19.4839 52.9784 29.5156Z" fill="#E2D6CD"/>
<path fill-rule="evenodd" clip-rule="evenodd" d="M63.4266 54.4649C62.8891 55.0942 61.9432 55.1687 61.3139 54.6312L58.9744 52.6331C58.3451 52.0957 58.2706 51.1498 58.8081 50.5204C59.3455 49.8911 60.2914 49.8166 60.9208 50.3541L63.2603 52.3522C63.8896 52.8896 63.9641 53.8355 63.4266 54.4649Z" fill="#49341C"/>
<path fill-rule="evenodd" clip-rule="evenodd" d="M9.34365 21.88C8.87131 22.5596 7.93749 22.7276 7.25789 22.2552L5.1018 20.7567C4.42221 20.2844 4.25419 19.3506 4.72653 18.671C5.19886 17.9914 6.13268 17.8233 6.81228 18.2957L8.96837 19.7942C9.64796 20.2665 9.81598 21.2004 9.34365 21.88Z" fill="#49341C"/>
<path fill-rule="evenodd" clip-rule="evenodd" d="M2.99706 2.99706V55.3363H67.0029V2.99706H2.99706ZM1.99804 0C0.894554 0 0 0.894555 0 1.99804V56.3353C0 57.4388 0.894555 58.3333 1.99804 58.3333H68.002C69.1054 58.3333 70 57.4388 70 56.3353V1.99804C70 0.894554 69.1054 0 68.002 0H1.99804Z" fill="#49341C"/>
<path fill-rule="evenodd" clip-rule="evenodd" d="M29.0623 33.9392C28.4773 33.3538 27.5284 33.3536 26.9431 33.9386L5.089 55.7819C4.50365 56.367 4.50341 57.3158 5.08848 57.9012C5.67355 58.4865 6.62237 58.4868 7.20772 57.9017L29.0618 36.0584C29.6472 35.4733 29.6474 34.5245 29.0623 33.9392Z" fill="#49341C"/>
<path fill-rule="evenodd" clip-rule="evenodd" d="M40.6903 34.5122C41.2415 33.8949 42.1888 33.8412 42.8062 34.3925L56.7925 46.8802C57.4098 47.4314 57.4634 48.3787 56.9122 48.9961C56.361 49.6134 55.4137 49.667 54.7964 49.1158L40.8101 36.6281C40.1927 36.0769 40.1391 35.1296 40.6903 34.5122Z" fill="#49341C"/>
<path fill-rule="evenodd" clip-rule="evenodd" d="M10.6189 22.1447C11.1013 21.4722 12.0376 21.3181 12.71 21.8006L35.6875 38.2844C36.36 38.7668 36.5141 39.7031 36.0316 40.3755C35.5492 41.048 34.613 41.2021 33.9405 40.7196L10.963 24.2358C10.2906 23.7534 10.1365 22.8171 10.6189 22.1447Z" fill="#49341C"/>
<path fill-rule="evenodd" clip-rule="evenodd" d="M68.496 15.1479C68.011 14.4773 67.0742 14.3267 66.4036 14.8116L33.9354 38.2886C33.2647 38.7736 33.1142 39.7104 33.5991 40.381C34.0841 41.0517 35.0209 41.2022 35.6915 40.7173L68.1597 17.2403C68.8303 16.7554 68.9809 15.8186 68.496 15.1479Z" fill="#49341C"/>
<path d="M41.1101 20.2325C36.5585 29.5507 32.489 29.3939 34.1356 27.0833C35.7821 24.7727 30.7858 22.8786 27.161 20.2325C23.5362 17.5863 25.1324 9.83224 34.3127 14.8583C38.8113 5.85783 45.6618 10.9142 41.1101 20.2325Z" fill="#7D0C31"/>
<path fill-rule="evenodd" clip-rule="evenodd" d="M35.1726 17.607L33.3532 16.6109C31.2396 15.4538 29.7889 15.1622 28.9013 15.2016C28.0834 15.238 27.754 15.5416 27.5977 15.7763C27.1639 16.4272 27.2912 17.8537 28.3391 18.6187C29.1722 19.2269 30.0989 19.8024 31.0583 20.3924C31.1109 20.4248 31.1637 20.4573 31.2167 20.4899C32.0971 21.031 33.0236 21.6005 33.8037 22.1703C34.589 22.744 35.4895 23.4997 36.0085 24.4613C36.0323 24.5053 36.0555 24.5502 36.078 24.5958C36.9966 23.4862 38.1171 21.8076 39.3148 19.3555C40.3407 17.2553 40.6594 15.5238 40.6048 14.2839C40.5485 13.0087 40.1228 12.4398 39.892 12.2634C39.7642 12.1658 39.4912 12.011 38.8576 12.3511C38.1479 12.732 37.1197 13.7114 36.0999 15.7516L35.1726 17.607ZM36.2623 27.2929C36.0791 27.4553 35.9035 27.598 35.7364 27.7223C35.6123 27.8146 35.4929 27.8967 35.3786 27.9691C33.9417 28.8788 33.2965 28.2607 34.1356 27.0833C34.2946 26.86 34.3917 26.6407 34.434 26.4242C34.4499 26.3427 34.4581 26.2617 34.4589 26.181C34.4721 24.8368 32.4415 23.5884 30.145 22.1764C29.1522 21.566 28.1096 20.925 27.161 20.2325C23.7183 17.7193 24.9851 10.5985 32.9861 14.1953C33.4094 14.3855 33.8515 14.6058 34.3127 14.8583C34.5103 14.463 34.7124 14.0948 34.9179 13.7529C39.3911 6.31022 45.4618 11.3235 41.1101 20.2325C39.3111 23.9154 37.5875 26.1182 36.2623 27.2929Z" fill="#49341C"/>
</svg>
