<svg width="39" height="39" viewBox="0 0 39 39" fill="none" xmlns="http://www.w3.org/2000/svg">
<path d="M9.36506 21.1924C9.41386 21.0707 9.90213 19.1944 9.93635 19.0674C9.17403 17.9203 8.32722 14.1641 8.97676 11.1151C9.67748 6.64153 14.4183 4.44237 18.8943 4.44237V4.43404C24.4983 4.43761 28.6931 7.5556 28.6975 12.9254C28.7011 17.1286 26.169 22.6843 21.8453 22.6843C21.8442 22.6843 21.8433 22.6843 21.8421 22.6843C20.299 22.6843 18.3453 21.9845 17.8329 21.2972C17.2417 20.5051 17.0965 19.5277 17.4089 18.4833C18.1745 16.0395 19.1508 13.1123 19.2647 11.1604C19.3704 9.31826 18.0632 8.11974 16.3681 8.11974C15.0925 8.11974 13.4358 8.86063 12.6101 10.9426C11.9281 12.6722 11.9427 14.4831 12.6547 16.4781C12.9323 17.258 11.4241 22.3422 10.9409 23.9977C9.74026 28.1104 8.09662 33.3139 8.44802 36.2117L8.78722 39L10.491 36.7672C12.8487 33.6808 15.2865 25.697 15.9361 23.7543C17.8564 26.2412 21.8555 26.3126 22.3217 26.3126C28.0486 26.3126 34.5425 20.6259 34.3584 12.7112C34.1968 5.77032 29.1171 0 19.9898 0V0.00892643C11.308 0.00892643 6.24082 4.64291 5.00035 10.498C3.86432 15.9271 6.39079 20.0591 9.36506 21.1924Z" fill="#EAEAEA"/>
</svg>
