<svg width="39" height="39" viewBox="0 0 39 39" fill="none" xmlns="http://www.w3.org/2000/svg">
<path d="M27.6778 0H25.5672C19.7011 0 14.9287 4.77252 14.9287 10.6387V15.1285H11.3228C10.9515 15.1285 10.6504 15.4296 10.6504 15.8009V21.1802C10.6504 21.5515 10.9515 21.8526 11.3228 21.8526H14.9284V38.3276C14.9284 38.6989 15.2295 39 15.6008 39H20.9801C21.3514 39 21.6526 38.6989 21.6526 38.3276V21.8526H27.0031C27.3744 21.8526 27.6755 21.5515 27.6755 21.1802V15.8009C27.6755 15.4296 27.3744 15.1285 27.0031 15.1285H21.6526V10.6387C21.6526 8.48021 23.4086 6.72414 25.5669 6.72414H27.6775C28.0488 6.72414 28.3499 6.42303 28.3499 6.05172V0.672414C28.3502 0.301107 28.0491 0 27.6778 0Z" fill="#EAEAEA"/>
</svg>
