<svg width="28" height="28" viewBox="0 0 28 28" fill="none" xmlns="http://www.w3.org/2000/svg">
<rect x="0.5" y="0.5" width="27" height="27" stroke="#49341C"/>
<rect x="9.5" y="11" width="9" height="9" stroke="#49341C"/>
<path d="M13.4583 9.04491C13.6204 9.49179 13.6493 9.91339 13.5889 10.2232C13.5264 10.5444 13.3938 10.6568 13.3133 10.686C13.2328 10.7152 13.0591 10.7139 12.8051 10.5076C12.5601 10.3085 12.312 9.9665 12.1498 9.51962C11.9877 9.07274 11.9588 8.65115 12.0192 8.34135C12.0817 8.02015 12.2143 7.90775 12.2948 7.87855C12.3753 7.84934 12.549 7.85061 12.803 8.05696C13.048 8.256 13.2961 8.59803 13.4583 9.04491Z" stroke="#49341C"/>
<path d="M15.8501 9.51759C16.0122 9.07071 16.0411 8.64911 15.9808 8.33931C15.9182 8.01812 15.7857 7.90572 15.7052 7.87651C15.6247 7.84731 15.4509 7.84858 15.1969 8.05493C14.952 8.25397 14.7038 8.596 14.5417 9.04288C14.3795 9.48976 14.3507 9.91135 14.411 10.2212C14.4736 10.5423 14.6061 10.6548 14.6866 10.684C14.7671 10.7132 14.9409 10.7119 15.1949 10.5055C15.4398 10.3065 15.688 9.96447 15.8501 9.51759Z" stroke="#49341C"/>
<path d="M9 15.5H18" stroke="#49341C"/>
<path d="M14 20V11" stroke="#49341C"/>
</svg>
